<svg class="svg-icon" style="width: 1em;height: 1em;vertical-align: middle;fill: currentColor;overflow: hidden;" viewBox="0 0 1024 1024" version="1.1" xmlns="http://www.w3.org/2000/svg"><path d="M512 1024c-56.096-89.344-97.184-137.728-123.296-145.184C201.216 825.248 64 652.672 64 448 64 200.576 264.576 0 512 0s448 200.576 448 448c0 203.168-135.232 374.72-320.608 429.632-26.88 7.968-69.376 56.768-127.392 146.368z m213.312-323.2c23.584 0 42.688-20.064 42.688-44.8V185.6c0-24.736-19.104-44.8-42.688-44.8 0 0-106.08-44.8-213.312-44.8-106.08 0-192 44.8-192 44.8-23.552 0-64 20.064-64 44.8v470.4c0 24.736 19.104 44.8 42.688 44.8v44.8c0 12.352 9.536 22.4 21.312 22.4h64c11.84 0 21.344-10.048 21.344-22.4v-44.8h213.344v44.8c0 12.384 9.536 22.4 21.344 22.4H704c11.776 0 21.312-10.048 21.312-22.4v-44.8zM352 633.6c-29.44 0-53.312-25.088-53.312-56 0-30.944 23.872-56 53.312-56 29.472 0 53.344 25.056 53.344 56 0 30.912-23.872 56-53.344 56z m245.344-492.8c11.776 0 21.344 10.016 21.344 22.4 0 12.352-9.536 22.4-21.312 22.4h-170.688a21.92 21.92 0 0 1-20.096-21.12c-0.672-12.352 8.32-22.976 20.096-23.68h170.656z m128 134.4v134.4c0 12.384-9.536 22.4-21.312 22.4H320c-11.84 0-21.344-10.048-21.344-22.4V275.2c0-12.352 9.536-22.4 21.312-22.4h384.064c11.776 0.032 21.28 10.08 21.248 22.4zM672 521.6c29.44 0 53.312 25.056 53.312 56 0 30.912-23.872 56-53.312 56-29.472 0-53.344-25.088-53.344-56 0-30.944 23.872-56 53.344-56z"  /></svg>